<?xml version="1.0" encoding="UTF-8"?>
<svg id="OBJECTS" xmlns="http://www.w3.org/2000/svg" xmlns:xlink="http://www.w3.org/1999/xlink" viewBox="0 0 474.58 358.16">
  <defs>
    <style>
      .cls-1 {
        fill: #ffceab;
      }

      .cls-1, .cls-2, .cls-3, .cls-4, .cls-5, .cls-6, .cls-7, .cls-8, .cls-9, .cls-10 {
        stroke-width: 0px;
      }

      .cls-2 {
        fill: #829eee;
      }

      .cls-3 {
        fill: #7b7bff;
      }

      .cls-4 {
        fill: #3558bd;
      }

      .cls-5 {
        fill: #222e6c;
      }

      .cls-6 {
        fill: none;
      }

      .cls-7 {
        fill: #6e86ee;
      }

      .cls-11 {
        opacity: .15;
      }

      .cls-12 {
        opacity: .45;
      }

      .cls-13 {
        opacity: .16;
      }

      .cls-14 {
        opacity: .1;
      }

      .cls-15 {
        clip-path: url(#clippath);
      }

      .cls-8 {
        fill: #a8a8f2;
      }

      .cls-9 {
        fill: #fff;
      }

      .cls-10 {
        fill: #28377e;
      }
    </style>
    <clipPath id="clippath">
      <rect class="cls-6" x="44.12" y="49.89" width="314.87" height="188.92" rx="6.28" ry="6.28" transform="translate(403.1 288.7) rotate(180)"/>
    </clipPath>
  </defs>
  <g class="cls-14">
    <path class="cls-4" d="M21.11,131.03c9.19-9.03,20.9-16.46,34.12-24.5,29.65-18.05,53.68-43.85,76.69-69.84,12.74-14.39,26.72-29.8,45.58-33.53,21.33-4.22,39.37,8.07,58.28,15.53,39.17,15.45,82.98,8.91,125.04,6.94,22.97-1.08,49.33.81,63.55,18.88,9.24,11.73,10.96,27.79,9.4,42.64-1.56,14.85-6.01,29.27-7.72,44.09-1.54,13.3-.86,26.84-3.24,40.02-6.78,37.43-40.74,68.19-78.66,71.24-16.55,1.33-33.49-2.06-49.66,1.67-22.55,5.2-39.57,23.1-58.97,35.72-16.25,10.57-34.75,17.64-53.9,20.6-13.02,2.01-26.75,2.06-38.91-3.01-15.78-6.58-27.19-20.98-42.75-28.06-20.61-9.38-45.72-4.74-65.9-15C7.04,240.68-1.83,205.23.31,177.32c1.61-20.95,9.21-34.89,20.81-46.28Z"/>
  </g>
  <g>
    <rect class="cls-2" x="44.12" y="35.31" width="314.87" height="203.51" rx="6.52" ry="6.52"/>
    <g class="cls-15">
      <g class="cls-12">
        <path class="cls-4" d="M27.74,57.98c-.11-2.48,41.48.06,45.08,1.06,18.37,5.12,24.79,16.64,36.27,30,13.64,15.87,36.59,16.83,54.16,26.08,21.98,11.57,23.94,34.67,35.53,54.22,5.66,9.55,13.86,17.39,19.65,26.86,8.82,14.41,11.58,32.4,7.47,48.78l-189.74-.69S27.74,58.14,27.74,57.98Z"/>
      </g>
      <g>
        <path class="cls-10" d="M98.3,183.2l48.75-.35s10.12,59.17,10.65,79.9l-58.11,1.45s-3.46-25.71-3.87-32.93c-.65-11.52,2.58-48.07,2.58-48.07Z"/>
        <path class="cls-4" d="M100.14,121.92c-2.97,8.32-11.52,45.73-9.56,80.06l61.46-1.46s-3.87-35.72-12.14-59.17c-3.68-10.43-14.92-20.24-17.04-22.63l-19.9,1.2c-1.29.07-2.41.86-2.82,2Z"/>
        <g>
          <g>
            <path class="cls-1" d="M192.97,147.95c-1.12-1.61-3.19-.87.52-3.52,1.95-1.39,3.51-3.81,5.04-5.12.78-.67,1.47-.58,1.81-.45.56.21.64.78.64.78.77-.33,1.42.64,1.54.85.24.41.04.9.04.9,0,0,.65-.19,1.29.65.39.51.46.9.23,1.29,0,0,1.03.77.49,1.61-.26.41-1.98,2.84-6.19,5.87-2.59,1.87-2.96.62-4.03-.93l-1.39-1.95Z"/>
            <path class="cls-10" d="M200.02,147.33c-.15,0-.29-.07-.39-.2-.16-.21-.11-.52.1-.67,1.79-1.32,3.82-3.17,3.84-3.19.2-.18.5-.17.68.02.18.19.18.49-.01.68-.02.02-2.11,1.92-3.94,3.26-.09.06-.19.09-.29.09Z"/>
            <path class="cls-10" d="M198.74,145.57c-.15,0-.29-.07-.39-.2-.16-.21-.11-.52.1-.67,1.75-1.29,3.8-3.38,3.82-3.4.18-.19.49-.2.68-.01.19.18.2.49.01.68-.02.02-2.11,2.16-3.94,3.5-.09.06-.19.09-.29.09Z"/>
            <path class="cls-10" d="M197.32,143.86c-.15,0-.29-.07-.39-.2-.16-.21-.11-.52.1-.67,1.74-1.28,3.69-3.25,3.91-3.47.18-.18.48-.2.68-.02.19.18.21.47.05.66,0,0-.02.02-.03.03-.23.23-2.23,2.25-4.03,3.58-.09.06-.19.09-.29.09Z"/>
            <path class="cls-1" d="M194.96,139.59c-1.1-.28-1.8,1.61-2.26,3.3-.22.8-.61,1.83-.47,2.39.2.83,2.75-1.27,2.75-1.27,0,0,2.19-3.84-.01-4.41Z"/>
            <path class="cls-10" d="M195.23,143.37c-.08,0-.16-.02-.23-.06-.23-.13-.32-.42-.19-.66,0-.01.61-1.11.62-2.09,0-.27.25-.44.49-.48.27,0,.48.22.48.49,0,1.23-.71,2.5-.74,2.55-.09.16-.25.25-.42.25Z"/>
          </g>
          <path class="cls-4" d="M122.26,119.94c23.05-1.98,44.36,36.62,44.36,36.62l24.8-13.3,7.78,8.43s-16.89,26.71-40.12,22.23c-9.28-1.79-19.76-18.4-19.76-18.4"/>
        </g>
        <path class="cls-10" d="M147.82,173.73c-.22,0-.42-.15-.47-.38-1.96-8.64-5.22-25.37-5.25-25.53-.05-.26.12-.51.38-.57.26-.06.51.12.56.38.03.17,3.28,16.88,5.24,25.5.06.26-.1.52-.36.58-.04,0-.07.01-.11.01Z"/>
        <g>
          <g>
            <path class="cls-8" d="M93.8,174.49l-26.31,33.59,27,21.14c1.07.84,2.6.69,3.4-.34l23.39-29.86c.81-1.03.59-2.55-.48-3.39l-27-21.14Z"/>
            <path class="cls-3" d="M94.53,173.49l-27,34.47,25.49,19.97c1.07.84,2.62.65,3.46-.42l23.96-30.59c.84-1.07.65-2.62-.42-3.46l-25.49-19.97Z"/>
            <g class="cls-11">
              <path class="cls-10" d="M93.02,227.93l-25.49-19.97,11.14-14.22s1.54,11.77,5.77,20.61c4.23,8.84,8.58,13.58,8.58,13.58Z"/>
            </g>
            <rect class="cls-10" x="91.66" y="175.41" width="3.49" height="1.4" rx=".48" ry=".48" transform="translate(128.47 -20.13) rotate(38.07)"/>
            <rect class="cls-10" x="88.61" y="179.31" width="3.49" height="1.4" rx=".48" ry=".48" transform="translate(130.22 -17.42) rotate(38.07)"/>
            <rect class="cls-10" x="85.55" y="183.22" width="3.49" height="1.4" rx=".48" ry=".48" transform="translate(131.98 -14.7) rotate(38.07)"/>
            <rect class="cls-10" x="82.49" y="187.12" width="3.49" height="1.4" rx=".48" ry=".48" transform="translate(133.73 -11.98) rotate(38.07)"/>
            <rect class="cls-10" x="79.43" y="191.03" width="3.49" height="1.4" rx=".48" ry=".48" transform="translate(135.49 -9.27) rotate(38.07)"/>
            <rect class="cls-10" x="76.37" y="194.93" width="3.49" height="1.4" rx=".48" ry=".48" transform="translate(137.24 -6.55) rotate(38.07)"/>
            <rect class="cls-10" x="73.32" y="198.83" width="3.49" height="1.4" rx=".48" ry=".48" transform="translate(139 -3.84) rotate(38.07)"/>
            <rect class="cls-10" x="70.26" y="202.74" width="3.49" height="1.4" rx=".48" ry=".48" transform="translate(140.77 -1.12) rotate(38.07)"/>
            <rect class="cls-10" x="67.72" y="205.86" width="3.49" height="1.4" rx=".48" ry=".48" transform="translate(142.14 1.11) rotate(38.07)"/>
            <path class="cls-10" d="M107.11,196.84c-.11,0-.22-.04-.32-.11l-9.97-7.84c-.22-.18-.26-.5-.09-.73.18-.22.5-.26.72-.09l9.97,7.84c.22.18.26.5.09.73-.1.13-.25.2-.41.2Z"/>
            <path class="cls-10" d="M105.34,199.35c-.11,0-.22-.04-.32-.11l-9.97-7.84c-.22-.18-.26-.5-.09-.73.18-.22.5-.26.73-.09l9.97,7.84c.22.18.26.5.09.73-.1.13-.25.2-.41.2Z"/>
          </g>
          <g>
            <path class="cls-1" d="M97.79,204.53c2.12,3.57,3.8,6.09,4.73,7.54.62.96,1.2,1.89,1.91,2.97.49.74-.89,2.1-1.67,1.25l-.2-.21c.28.87-.72,1.2-.94,1.25-.42.11-.89-.25-.89-.25,0,0,.15.7-.73,1.07-.53.22-.92.17-1.29-.17,0,0-.83.77-1.62-.02-.46-.46-3.81-4.16-8.32-10.17l9.01-3.26Z"/>
            <path class="cls-10" d="M98.53,218.52c-.14,0-.28-.06-.38-.18-.05-.06-1.25-1.57-2.2-3.24-.13-.23-.05-.53.18-.66.23-.13.53-.05.66.18.91,1.61,2.1,3.1,2.11,3.11.17.21.13.51-.07.68-.09.07-.2.11-.3.11Z"/>
            <path class="cls-10" d="M100.78,217.74c-.14,0-.28-.06-.37-.18-.07-.08-1.65-2.03-2.6-3.71-.13-.23-.05-.53.18-.66.23-.13.53-.05.66.18.91,1.61,2.49,3.56,2.51,3.58.17.21.14.51-.07.68-.09.07-.2.11-.3.11Z"/>
            <path class="cls-10" d="M102.7,216.78c-.14,0-.28-.06-.37-.18-.07-.08-1.65-2.03-2.6-3.71-.13-.23-.05-.53.18-.66.23-.13.53-.05.66.18.91,1.61,2.49,3.56,2.51,3.58.17.21.14.51-.07.68-.09.07-.2.11-.3.11Z"/>
          </g>
          <path class="cls-4" d="M70.49,165.05c.56-15.92,23.59-49.18,34.02-44.37,12.04,5.55-11.07,39.8-15.3,48.32-.48.97,10.85,35.91,10.85,35.91-.97,5.72-11.15,6.8-11.15,6.8,0,0-19.24-23.54-18.43-46.66Z"/>
          <path class="cls-10" d="M90.81,166.26c-.07,0-.14-.02-.21-.05-.24-.12-.34-.41-.22-.65l9.06-18.46c.12-.24.4-.34.65-.22.24.12.34.41.22.65l-9.06,18.46c-.08.17-.26.27-.43.27Z"/>
          <path class="cls-10" d="M99.67,203.92c-.2,0-.39-.13-.46-.34l-9.49-29.75c-.08-.25.06-.52.31-.61.25-.08.53.06.61.31l9.49,29.75c.08.25-.06.53-.31.61-.05.02-.1.02-.15.02Z"/>
        </g>
        <g>
          <g>
            <path class="cls-1" d="M131.86,80.59s5.25,13.1,4.82,21.28c-.41,7.73-6.23,13-13.1,13.36l-.37,5.32s-9.03,2.91-18.06.76l-.76-12.17-1.24-25.78,3.03-5.26,22.76-4.56,2.93,7.06Z"/>
            <path class="cls-10" d="M119.57,91.88c.22.71.97,1.1,1.67.89.71-.22,1.1-.97.89-1.67-.22-.71-.97-1.1-1.67-.89-.71.22-1.1.97-.89,1.67Z"/>
            <path class="cls-10" d="M127.35,89.68c.22.71.97,1.1,1.67.89.71-.22,1.1-.97.89-1.67-.22-.71-.97-1.1-1.67-.89-.71.22-1.1.97-.89,1.67Z"/>
            <path class="cls-10" d="M124.55,97.44c-.75,0-1.46-.17-2.09-.49-.23-.12-.32-.41-.2-.64.12-.23.41-.32.64-.2.55.29,1.24.42,1.92.37.75-.05,1.46-.31,1.99-.72.21-.16.5-.12.66.08.16.21.12.5-.08.66-.68.53-1.57.86-2.51.92-.11,0-.23.01-.34.01Z"/>
            <path class="cls-10" d="M113.46,113.36c.96.9,9.52,5.26,9.87,5.38,0,0,.28-4.28.27-3.74,0,.22-1.8.42-4.08-.11-2.04-.48-4.18-1.32-5.5-1.88l-.57.35Z"/>
            <path class="cls-10" d="M122.01,115.48c-3.06,0-6.01-.75-8.38-1.92-.23-.12-.33-.4-.21-.63.12-.23.4-.33.63-.21,4.69,2.32,11.81,2.89,17.15-1.08.21-.16.51-.11.66.1.16.21.11.51-.1.66-2.96,2.19-6.42,3.08-9.76,3.08Z"/>
            <path class="cls-10" d="M121.27,86.31c-1.02-.55-3.25.57-3.84,1.04,0,0-.33.77.35,1.3.8.61,2.89-.38,3.69-.63.06-.02.13-.04.18-.09.06-.06.08-.15.09-.23.05-.31.07-.64-.05-.93-.09-.21-.23-.36-.41-.46Z"/>
            <path class="cls-10" d="M129.69,84.07c-1.01-.57-3.26.5-3.86.96,0,0-.35.76.33,1.3.79.63,2.89-.32,3.7-.56.07-.02.13-.04.18-.09.06-.06.08-.15.09-.23.05-.31.08-.64-.03-.93-.08-.22-.22-.37-.4-.47Z"/>
            <path class="cls-10" d="M136.13,70.86s4.03,3.67,2.28,8.81c-.78,2.29-3.43,3.73-5.65,4.01-3.7.47-7.34-1.4-7.35-1.4.06.02-1.81,3.09-6.55,3.71-3.24.42-5.12.2-7-1.78,0,0-.37,4.75-5.32,5.62,0,0,1.12,15.62-2.21,20.3-.3.42-9.45,4.63-10.01-3.84,0,0-8.18.95-8.42-7.43,0,0-7.94-5.92-3.61-14.89,0,0-3.63-8.77,3.66-11.88,0,0-1.99-11.67,11.82-12.32,0,0,2.44-3.13,6.21-3.93,3.86-.81,6.3-.48,9.79,1.68,0,0,2.66-2.14,7.39-1.32,4.28.74,5.06,3.84,5.06,3.84,0,0,4.82-.91,7.99,3.57,1.16,1.63,2.05,3.9,1.94,7.23Z"/>
            <g>
              <path class="cls-1" d="M107.09,96.06c-2.32-.74-6.69-2.01-8.62-.18-1.63,1.56-1.45,4.25.26,5.81,2.79,2.55,7.79,3.28,9.28,3.59"/>
              <path class="cls-10" d="M100.16,98.77c-.17,0-.34-.09-.42-.26-.12-.23-.03-.52.21-.64,1.91-.97,3.41-.4,3.47-.37.24.1.36.37.27.61-.1.24-.37.36-.61.27h0s-1.19-.44-2.7.33c-.07.04-.14.05-.21.05Z"/>
              <path class="cls-10" d="M102.54,100.76c-.13,0-.27-.06-.36-.17-.02-.03-.6-.72-1.27-2.09-.11-.24-.02-.52.22-.63.24-.11.52-.01.63.22.61,1.26,1.13,1.89,1.14,1.9.17.2.14.5-.06.67-.09.07-.2.11-.31.11Z"/>
            </g>
          </g>
          <path class="cls-10" d="M111.66,122.69c-2.29,0-4.61-.25-6.67-.94-.25-.08-.38-.35-.3-.6.08-.25.35-.38.6-.3,6.97,2.33,17.67-.73,17.78-.76.25-.07.51.07.59.32.07.25-.07.51-.32.59-.32.09-5.88,1.69-11.67,1.69Z"/>
        </g>
      </g>
    </g>
    <g>
      <path class="cls-9" d="M44.12,215.81v16.72c0,3.47,2.81,6.28,6.28,6.28h302.31c3.47,0,6.28-2.81,6.28-6.28v-16.72H44.12Z"/>
      <g>
        <g class="cls-13">
          <path class="cls-10" d="M329.94,229.59H70.5c-1.21,0-2.19-.98-2.19-2.19h0c0-1.21.98-2.19,2.19-2.19h259.44c1.21,0,2.19.98,2.19,2.19h0c0,1.21-.98,2.19-2.19,2.19Z"/>
        </g>
        <path class="cls-4" d="M198.37,229.59h-127.87c-1.21,0-2.19-.98-2.19-2.19h0c0-1.21.98-2.19,2.19-2.19h127.87c1.21,0,2.19.98,2.19,2.19h0c0,1.21-.98,2.19-2.19,2.19Z"/>
      </g>
      <g>
        <path class="cls-4" d="M61.77,227.17c0,3.26-2.64,5.9-5.9,5.9s-5.9-2.64-5.9-5.9,2.64-5.9,5.9-5.9,5.9,2.64,5.9,5.9Z"/>
        <polygon class="cls-9" points="54.19 224.41 58.99 227.23 54.19 230.05 54.19 224.41"/>
      </g>
      <g>
        <rect class="cls-4" x="341.66" y="224.93" width="3.34" height="6.15"/>
        <rect class="cls-4" x="337.27" y="226.06" width="3.34" height="5.02"/>
        <rect class="cls-4" x="346.04" y="223.44" width="3.34" height="7.64"/>
        <rect class="cls-4" x="350.43" y="222.14" width="3.34" height="8.94"/>
      </g>
    </g>
    <path class="cls-9" d="M244.56,56.92h88.16c1.23,0,2.24,1,2.24,2.24v48.95c0,1.23-1,2.24-2.24,2.24h-88.16c-1.23,0-2.24-1-2.24-2.24v-48.94c0-1.23,1-2.24,2.24-2.24Z"/>
    <path class="cls-9" d="M244.67,128.76h88.16c1.23,0,2.24,1,2.24,2.24v48.94c0,1.23-1,2.24-2.24,2.24h-88.16c-1.23,0-2.24-1-2.24-2.24v-48.94c0-1.23,1-2.24,2.24-2.24Z"/>
  </g>
  <g>
    <circle class="cls-4" cx="10.4" cy="157.33" r="9.95"/>
    <circle class="cls-4" cx="111.67" cy="5.54" r="5.54"/>
    <polygon class="cls-3" points="258.32 254.88 269.72 262.81 268.54 276.65 255.97 282.55 244.58 274.61 245.76 260.78 258.32 254.88"/>
    <polygon class="cls-4" points="392.48 106.14 400.75 108.73 402.65 117.18 396.28 123.04 388.01 120.46 386.11 112.01 392.48 106.14"/>
    <polygon class="cls-3" points="433.95 40.72 419.49 63.61 446.57 63.4 433.95 40.72"/>
    <polygon class="cls-3" points="23.52 103.99 13.19 116.58 29.37 118.46 23.52 103.99"/>
  </g>
  <g>
    <g>
      <g class="cls-14">
        <path class="cls-4" d="M473.59,351.56c0,4.27-26.53,6.6-59.25,6.6s-58.47-2.39-59.25-6.6c-1.43-7.73,26.53-8.01,59.25-8.01s59.25.28,59.25,8.01Z"/>
      </g>
      <g>
        <rect class="cls-10" x="437.9" y="302.73" width="2.28" height="47.55"/>
        <polygon class="cls-10" points="410.79 350.33 439.27 334.73 439.14 342.79 415.45 350.23 410.79 350.33"/>
        <polygon class="cls-10" points="467.63 350.33 439.14 334.73 439.27 342.79 462.96 350.23 467.63 350.33"/>
        <path class="cls-3" d="M448.37,301.75h7.64c3.03,0,5.49-1.47,5.49-3.29,0-4.07,2.2-9.1,3.16-13.08,1.1-4.56,2.2-9.11,3.31-13.67,2.07-8.58,4.21-17.14,6.33-25.7.24-.97.47-2.03.06-2.94-1.24-2.71-6.91-2.92-9.36-3.36-2.11-.38-4.38-.53-6.26.48-7.95,4.29-11.06,38.3-13.43,48.14-.81,3.37-1.62,6.74-2.43,10.12,0,1.82,2.46,3.29,5.49,3.29Z"/>
        <rect class="cls-3" x="410.96" y="295.21" width="53.72" height="7.69" rx="2.18" ry="2.18" transform="translate(875.65 598.12) rotate(180)"/>
        <path class="cls-10" d="M462.51,295.48h-24.33c-.15,0-.27-.12-.27-.27s.12-.27.27-.27h24.33c.15,0,.27.12.27.27s-.12.27-.27.27Z"/>
      </g>
      <path class="cls-1" d="M431.8,266.34s-6.38,2.46-6.55,4.91c-.15,2.15,7.18.33,7.18.33l-.64-5.24Z"/>
      <g>
        <g>
          <polygon class="cls-1" points="377.68 334.14 380.59 326.92 387.04 329.68 383.49 337.76 377.68 334.14"/>
          <polygon class="cls-9" points="378.75 330.88 385.3 333.68 383.91 336.9 377.75 333.78 378.75 330.88"/>
          <path class="cls-4" d="M364.85,334.07c4.13.67,10.74,1.85,10.74,1.85l1.54-2.68,7.4,3.28s-2.29,7.22-2.56,7.88c-.27.66-.83,2.33-1.97,1.9-2.92-1.09-19.71-8.35-22.44-10.21-.69-.47.09-2.07,1.89-2.54,1.66-.44,4.26.33,5.4.52Z"/>
          <path class="cls-10" d="M375.63,340.3c-.49,0-.84-.29-.97-.81-.3-1.19.55-3.46,1-4.13.06-.09.16-.14.28-.12.11.02.2.1.23.2.17.63.59,3.5.39,4.13-.15.45-.46.71-.87.73-.02,0-.04,0-.05,0ZM375.77,336.37c-.37.89-.76,2.27-.58,2.99.09.35.25.39.46.38.07,0,.25,0,.36-.34.11-.32-.06-1.95-.24-3.03Z"/>
          <path class="cls-10" d="M373.41,339.31c-.21,0-.38-.08-.49-.15-.44-.29-.56-.73-.36-1.25.45-1.14,2.46-2.49,3.23-2.77.1-.04.22-.01.3.06s.1.19.06.29c-.22.59-1.57,3.2-2.1,3.58-.24.17-.46.23-.64.23ZM375.3,336.03c-.83.51-1.94,1.4-2.21,2.09-.13.33,0,.47.15.58.06.04.21.14.49-.07.27-.2,1.09-1.62,1.57-2.6Z"/>
          <path class="cls-10" d="M381.35,345.7s-.08,0-.11-.02l-23.67-10.47c-.14-.06-.21-.23-.14-.37.06-.14.23-.21.37-.14l23.67,10.47c.14.06.21.23.14.37-.05.1-.15.17-.26.17Z"/>
          <path class="cls-10" d="M369.18,336.56c-.13,0-.25-.1-.28-.23-.23-1.32-.62-1.8-.62-1.8-.1-.12-.08-.29.03-.39.11-.1.29-.09.39.03.05.06.5.6.75,2.07.03.15-.08.3-.23.32-.02,0-.03,0-.05,0Z"/>
          <path class="cls-10" d="M370.91,336.9c-.13,0-.25-.1-.28-.23-.23-1.32-.62-1.8-.62-1.8-.1-.12-.08-.29.03-.39.11-.1.29-.09.39.03.05.06.5.6.75,2.07.03.15-.08.3-.23.32-.02,0-.03,0-.05,0Z"/>
          <path class="cls-10" d="M372.51,337.13c-.13,0-.25-.1-.28-.23-.23-1.32-.62-1.8-.62-1.8-.1-.12-.09-.29.03-.39.11-.1.29-.09.39.03.05.06.5.6.75,2.07.03.15-.08.3-.23.32-.02,0-.03,0-.05,0Z"/>
        </g>
        <g>
          <polygon class="cls-1" points="392.57 341.01 392.15 333.23 399.17 333 399.37 341.82 392.57 341.01"/>
          <polygon class="cls-9" points="392.17 337.6 399.28 337.36 399.39 340.87 392.49 340.65 392.17 337.6"/>
          <path class="cls-4" d="M380.92,346.36c4.03-1.15,10.51-2.86,10.51-2.86l.26-3.08,8.1-.16s.98,7.51,1.01,8.23c.03.71.24,2.46-.98,2.55-3.11.25-21.39.77-24.65.24-.82-.13-.79-1.91.64-3.1,1.32-1.1,4-1.5,5.12-1.82Z"/>
          <path class="cls-10" d="M392.89,347.56c-.29,0-.56-.14-.79-.42-.78-.95-.97-3.36-.84-4.17.02-.11.09-.2.2-.23.11-.03.22,0,.29.09.42.49,2.02,2.92,2.1,3.58.06.47-.11.84-.48,1.03-.16.08-.32.13-.48.13ZM391.79,343.83c.04.97.27,2.37.75,2.95.23.28.41.24.57.15.1-.05.22-.15.18-.46-.04-.33-.88-1.74-1.5-2.64Z"/>
          <path class="cls-10" d="M390.52,347.58s-.1,0-.13,0c-.52-.08-.82-.42-.85-.98-.07-1.23,1.18-3.29,1.75-3.87.08-.08.19-.1.3-.07.1.04.17.13.18.24.05.65-.07,3.55-.39,4.13-.26.47-.61.56-.85.56ZM391.21,343.72c-.53.81-1.17,2.09-1.12,2.83.02.36.19.43.38.46.07,0,.25.04.42-.27.16-.29.3-1.93.33-3.02Z"/>
          <path class="cls-10" d="M374.8,350.47c-.15,0-.28-.12-.28-.27,0-.16.12-.28.27-.29l25.88-.52c.18-.01.28.12.29.27,0,.16-.12.28-.27.29l-25.88.52h0Z"/>
          <path class="cls-10" d="M385.78,346.82c-.09,0-.18-.04-.23-.12-.77-1.1-1.32-1.37-1.33-1.37-.14-.07-.2-.23-.14-.37.06-.14.22-.2.37-.14.07.03.7.33,1.56,1.56.09.13.06.3-.07.39-.05.03-.1.05-.16.05Z"/>
          <path class="cls-10" d="M387.49,346.4c-.09,0-.18-.04-.23-.12-.77-1.1-1.32-1.37-1.33-1.37-.14-.07-.2-.23-.14-.37.06-.14.23-.2.37-.14.07.03.7.33,1.56,1.56.09.13.06.3-.07.39-.05.03-.1.05-.16.05Z"/>
          <path class="cls-10" d="M389.03,345.93c-.09,0-.18-.04-.23-.12-.77-1.1-1.32-1.37-1.33-1.37-.14-.07-.2-.23-.14-.37.06-.14.22-.21.37-.14.07.03.7.33,1.56,1.56.09.13.06.3-.07.39-.05.03-.1.05-.16.05Z"/>
        </g>
        <path class="cls-5" d="M425.72,271.72c-4.27,2.38-32.91,4.98-35.64,9.42-3.75,6.09-5.65,16.73-7.56,26.24-3.14,15.7-4.3,21.82-4.3,21.82l8.6,3.8,15.62-37.73s35.09.65,39.72-.67c4.63-1.32,4.77-9.35,4.25-12.65-.62-3.93-4.36-15.29-4.36-15.29l-15.78.4s1.59,3.45-.55,4.65Z"/>
        <path class="cls-10" d="M422.81,275.15c-4.27,2.38-24.82,2.48-28.3,6.37-6.74,7.54-4.86,54.96-4.86,54.96l11.74.22s4.77-21.31,6.03-28.92c.53-3.19,1.43-12.34,1.43-12.34,0,0,34.49.49,39.12-.83,4.63-1.32,5.76-9.52,5.76-12.85,0-3.77.75-15.45.75-15.45l-28.29.36s-1.24,7.28-3.38,8.48Z"/>
        <g>
          <path class="cls-4" d="M455.77,279.54s5.85-47.74-.96-57.37c-2.57-3.64-14.26-1.02-14.26-1.02-5.58,5.65-8.44,11.51-10.49,19.18-2.05,7.68-6.08,25.46-6.78,33.37,5.64,2.72,32.49,5.84,32.49,5.84Z"/>
          <path class="cls-10" d="M428.25,249.55s-.02,0-.03,0c-.13-.01-.23-.14-.22-.27,1.92-17.26,11.2-26.97,11.3-27.06.09-.1.25-.1.35,0,.1.09.1.25,0,.35-.09.09-9.26,9.69-11.16,26.78-.01.12-.12.22-.24.22Z"/>
        </g>
        <g>
          <path class="cls-1" d="M410.61,257.02s-7.13,1.21-8.41,3.21c-1.28,1.99,7.5,2.53,7.5,2.53l.92-5.73Z"/>
          <path class="cls-1" d="M439.74,257.65l-29.13-.63-.92,5.73s28.8,6.44,36.84,2.99l-6.8-8.1Z"/>
          <path class="cls-4" d="M440.82,256.47s-1.49-23.82,4.45-26.38c5.94-2.56,9.4,1.56,10.28,4.04,1.47,4.13,2.25,20.59,1.14,25.95-1.02,4.98-4.04,9.91-17.99,9.49-13.94-.42-26.13-3.78-26.13-3.78l1.49-9.92,26.75.61Z"/>
          <path class="cls-10" d="M440.66,269.85c-.65,0-1.31-.01-1.96-.03-13.81-.42-26.07-3.76-26.19-3.79-.12-.03-.2-.15-.18-.27l1.49-9.92c.02-.12.11-.2.25-.21l26.49.6c-.07-1.39-.37-7.94.17-14.11.01-.13.11-.24.27-.22.13.01.23.13.22.27-.6,6.88-.15,14.23-.15,14.3,0,.07-.02.14-.07.19-.05.05-.1.08-.18.08l-26.54-.6-1.43,9.49c1.67.44,13.1,3.33,25.86,3.72,13.86.44,16.74-4.46,17.74-9.3.03-.13.15-.21.29-.19.13.03.22.16.19.29-1.69,8.23-8.92,9.72-16.27,9.72Z"/>
        </g>
        <g>
          <g>
            <path class="cls-1" d="M435.42,197.03s-2.82,8.24-2.3,13.27c.5,4.75,4.25,7.81,8.5,7.82l.4,3.27s5.66,1.51,11.15-.11l.09-7.53-.05-15.93-2.04-3.15-14.17-2.09-1.58,4.45Z"/>
            <path class="cls-10" d="M443.35,203.6c-.11.44-.56.71-1,.6-.44-.11-.71-.56-.6-1,.11-.44.56-.71,1-.6.44.11.71.56.6,1Z"/>
            <path class="cls-10" d="M438.49,202.5c-.11.44-.56.71-1,.6-.44-.11-.71-.56-.6-1,.11-.44.56-.71,1-.6.44.11.71.56.6,1Z"/>
            <path class="cls-10" d="M440.3,207.19h-.04c-.58,0-1.14-.18-1.58-.49-.13-.09-.16-.28-.07-.41.09-.13.28-.16.41-.07.34.24.78.37,1.25.38h.03c.41,0,.82-.1,1.14-.29.14-.08.32-.04.4.1.08.14.04.32-.1.4-.42.24-.91.37-1.43.37Z"/>
            <path class="cls-10" d="M447.8,216.65c-.56.58-5.7,3.54-5.91,3.63,0,0-.31-2.63-.29-2.3.01.14,1.12.2,2.51-.2,1.24-.36,2.54-.94,3.33-1.33l.36.2Z"/>
            <path class="cls-10" d="M441.99,218.27c-1.82,0-3.74-.45-5.5-1.63-.13-.09-.17-.27-.08-.41.09-.13.27-.17.41-.08,3.42,2.28,7.79,1.7,10.61.12.14-.08.32-.03.4.11.08.14.03.32-.11.4-1.5.84-3.54,1.49-5.71,1.49Z"/>
            <path class="cls-10" d="M442.13,200.22c.61-.37,2.02.25,2.4.52,0,0,.23.46-.18.81-.47.4-1.79-.14-2.29-.27-.04-.01-.08-.02-.11-.05-.04-.03-.05-.09-.06-.14-.04-.19-.06-.39,0-.57.05-.13.13-.23.24-.3Z"/>
            <path class="cls-10" d="M436.87,199.11c.6-.38,2.02.21,2.41.47,0,0,.24.46-.16.81-.47.41-1.79-.1-2.3-.23-.04,0-.08-.02-.11-.05-.04-.03-.05-.09-.06-.14-.04-.19-.07-.39,0-.57.05-.14.13-.23.23-.3Z"/>
            <g>
              <path class="cls-1" d="M451.82,205.78c1.4-.53,4.06-1.45,5.3-.38,1.06.91,1.03,2.57.02,3.59-1.64,1.66-4.7,2.27-5.61,2.51"/>
              <path class="cls-10" d="M456.16,207.24s-.08,0-.12-.03c-.95-.42-1.64-.13-1.67-.12-.15.07-.32,0-.38-.15-.07-.15,0-.32.14-.38.04-.02.95-.42,2.15.12.15.07.21.24.15.39-.05.11-.16.17-.27.17Z"/>
              <path class="cls-10" d="M454.76,208.54c-.06,0-.12-.02-.18-.06-.13-.1-.15-.28-.06-.41,0,0,.31-.41.64-1.21.06-.15.24-.22.38-.16.15.06.22.23.16.38-.37.87-.7,1.31-.71,1.33-.06.08-.14.12-.23.12Z"/>
            </g>
            <path class="cls-10" d="M443.95,189.07c1.07.02,7.6.3,10.16,1.11,1.36.43,2.71,1.11,3.56,2.26.63.86.93,1.91,1.09,2.96.41,2.78-1.04,10.44-1.04,10.44,0,0-1.04-.83-2.88-.74-.49.02-1.42.22-1.84.32-.19.05-.23,3.94-.41,3.94l-2.33-.27c-.17,0,.13-10.21.03-10.34-.44-.59-2.24-2.23-5.06-1.92-3.46.38-7.69,1.7-10.54-.11-1.82-1.15-2.7-3.72-2.05-6.03.05-.17,1.2-2.95,4.66-2.87,1.6.04,4.17,1.22,6.65,1.27Z"/>
          </g>
          <path class="cls-10" d="M448.12,222.37c-3.16,0-5.98-.65-6.16-.7-.16-.04-.25-.19-.22-.35.04-.16.19-.25.35-.22.07.02,6.76,1.57,10.98-.09.15-.06.32.02.38.17.06.15-.01.32-.16.38-1.56.62-3.42.82-5.16.82Z"/>
        </g>
      </g>
    </g>
    <g>
      <rect class="cls-10" x="322.41" y="263.34" width="117.42" height="6.4" transform="translate(762.24 533.08) rotate(180)"/>
      <g>
        <rect class="cls-10" x="328.76" y="269.67" width="104.72" height="2.67" transform="translate(762.24 542.02) rotate(180)"/>
        <rect class="cls-10" x="429.2" y="270.21" width="4.28" height="87.39" transform="translate(862.68 627.81) rotate(180)"/>
        <rect class="cls-10" x="329.29" y="270.21" width="4.28" height="87.39" transform="translate(662.86 627.81) rotate(180)"/>
      </g>
    </g>
    <g>
      <path class="cls-7" d="M346.8,235.32h35.44c1.64,0,2.97,1.14,2.97,2.54l8.22,22.31,17.53,3.05c.49,0-9.37.12-16.33.21l.03.08h-41.37l-9.45-25.65c0-1.4,1.33-2.54,2.97-2.54Z"/>
      <path class="cls-3" d="M346.8,235.32h35.44c1.64,0,2.97,1.14,2.97,2.54l8.22,22.31,17.53,3.05c.49,0-9.37.12-16.33.21l.03.08h-41.37l-9.45-25.65c0-1.4,1.33-2.54,2.97-2.54Z"/>
      <path class="cls-9" d="M363.24,248.75c0,2.42,1.96,4.39,4.38,4.39s4.39-1.96,4.39-4.39-1.96-4.39-4.39-4.39-4.38,1.96-4.38,4.39Z"/>
    </g>
  </g>
</svg>