<?xml version="1.0" encoding="UTF-8"?>
<svg id="OBJECTS" xmlns="http://www.w3.org/2000/svg" version="1.1" xmlns:xlink="http://www.w3.org/1999/xlink" viewBox="0 0 474.6 358.2">
  <defs>
    <style>
      .cls-1 {
        fill: #829eee;
      }

      .cls-1, .cls-2, .cls-3, .cls-4, .cls-5, .cls-6, .cls-7, .cls-8, .cls-9 {
        stroke-width: 0px;
      }

      .cls-2 {
        fill: #7b7bff;
      }

      .cls-3 {
        fill: #ffffff;
      }

      .cls-4 {
        fill: #222e6c;
      }

      .cls-10 {
        opacity: .2;
      }

      .cls-5 {
        fill: none;
      }

      .cls-6 {
        fill: #ffceab;
      }

      .cls-7 {
        fill: #6e86ee;
      }

      .cls-11 {
        clip-path: url(#clippath);
      }

      .cls-12 {
        opacity: .1;
      }

      .cls-8 {
        fill: #fff;
      }

      .cls-9 {
        fill: #28377e;
      }

      .cls-13 {
        opacity: .2;
      }
    </style>
    <clipPath id="clippath">
      <rect class="cls-5" x="44.1" y="49.9" width="314.9" height="188.9" rx="6.3" ry="6.3"/>
    </clipPath>
  </defs>
  <g class="cls-12">
    <path class="cls-3" d="M21.1,131c9.2-9,20.9-16.5,34.1-24.5,29.6-18.1,53.7-43.8,76.7-69.8,12.7-14.4,26.7-29.8,45.6-33.5,21.3-4.2,39.4,8.1,58.3,15.5,39.2,15.5,83,8.9,125,6.9,23-1.1,49.3.8,63.5,18.9,9.2,11.7,11,27.8,9.4,42.6s-6,29.3-7.7,44.1c-1.5,13.3-.9,26.8-3.2,40-6.8,37.4-40.7,68.2-78.7,71.2-16.5,1.3-33.5-2.1-49.7,1.7-22.5,5.2-39.6,23.1-59,35.7-16.2,10.6-34.8,17.6-53.9,20.6-13,2-26.8,2.1-38.9-3-15.8-6.6-27.2-21-42.8-28.1-20.6-9.4-45.7-4.7-65.9-15C7,240.7-1.8,205.2.3,177.3c1.6-20.9,9.2-34.9,20.8-46.3h0Z"/>
  </g>
  <g>
    <rect class="cls-1" x="44.1" y="35.3" width="314.9" height="203.5" rx="6.5" ry="6.5"/>
    <g class="cls-11">
      <g class="cls-13">
        <path class="cls-3" d="M27.7,58c-.1-2.5,41.5,0,45.1,1.1,18.4,5.1,24.8,16.6,36.3,30,13.6,15.9,36.6,16.8,54.2,26.1,22,11.6,23.9,34.7,35.5,54.2,5.7,9.6,13.9,17.4,19.6,26.9,8.8,14.4,11.6,32.4,7.5,48.8l-189.7-.7S27.7,58.1,27.7,58Z"/>
      </g>
    </g>
    <g>
      <path class="cls-8" d="M44.1,215.8v16.7c0,3.5,2.8,6.3,6.3,6.3h302.3c3.5,0,6.3-2.8,6.3-6.3v-16.7H44.1Z"/>
      <g>
        <g class="cls-10">
          <path class="cls-9" d="M329.9,229.6H70.5c-1.2,0-2.2-1-2.2-2.2h0c0-1.2,1-2.2,2.2-2.2h259.4c1.2,0,2.2,1,2.2,2.2h0c0,1.2-1,2.2-2.2,2.2Z"/>
        </g>
        <path class="cls-3" d="M198.4,229.6h-127.9c-1.2,0-2.2-1-2.2-2.2h0c0-1.2,1-2.2,2.2-2.2h127.9c1.2,0,2.2,1,2.2,2.2h0c0,1.2-1,2.2-2.2,2.2Z"/>
      </g>
      <g>
        <path class="cls-3" d="M61.8,227.2c0,3.3-2.6,5.9-5.9,5.9s-5.9-2.6-5.9-5.9,2.6-5.9,5.9-5.9,5.9,2.6,5.9,5.9Z"/>
        <polygon class="cls-8" points="54.2 224.4 59 227.2 54.2 230.1 54.2 224.4"/>
      </g>
      <g>
        <rect class="cls-3" x="341.7" y="224.9" width="3.3" height="6.1"/>
        <rect class="cls-3" x="337.3" y="226.1" width="3.3" height="5"/>
        <rect class="cls-3" x="346" y="223.4" width="3.3" height="7.6"/>
        <rect class="cls-3" x="350.4" y="222.1" width="3.3" height="8.9"/>
      </g>
    </g>
  </g>
  <g>
    <circle class="cls-3" cx="10.4" cy="157.3" r="9.9"/>
    <circle class="cls-3" cx="111.7" cy="5.5" r="5.5"/>
    <polygon class="cls-2" points="258.3 254.9 269.7 262.8 268.5 276.6 256 282.5 244.6 274.6 245.8 260.8 258.3 254.9"/>
    <polygon class="cls-3" points="392.5 106.1 400.8 108.7 402.6 117.2 396.3 123 388 120.5 386.1 112 392.5 106.1"/>
    <polygon class="cls-2" points="434 40.7 419.5 63.6 446.6 63.4 434 40.7"/>
    <polygon class="cls-2" points="23.5 104 13.2 116.6 29.4 118.5 23.5 104"/>
  </g>
  <g>
    <g>
      <g class="cls-12">
        <path class="cls-3" d="M468.9,311.6c0,4.3-26.5,6.6-59.2,6.6s-58.5-2.4-59.2-6.6c-1.4-7.7,26.5-8,59.2-8s59.2.3,59.2,8Z"/>
      </g>
      <g>
        <rect class="cls-9" x="433.2" y="262.8" width="2.3" height="47.5"/>
        <polygon class="cls-9" points="406.1 310.4 434.5 294.8 434.4 302.9 410.7 310.3 406.1 310.4"/>
        <polygon class="cls-9" points="462.9 310.4 434.4 294.8 434.5 302.9 458.2 310.3 462.9 310.4"/>
        <path class="cls-2" d="M443.6,261.8h7.6c3,0,5.5-1.5,5.5-3.3,0-4.1,2.2-9.1,3.2-13.1,1.1-4.6,2.2-9.1,3.3-13.7,2.1-8.6,4.2-17.1,6.3-25.7.2-1,.5-2,0-2.9-1.2-2.7-6.9-2.9-9.4-3.4-2.1-.4-4.4-.5-6.3.5-8,4.3-11.1,38.3-13.4,48.1-.8,3.4-1.6,6.7-2.4,10.1,0,1.8,2.5,3.3,5.5,3.3h0Z"/>
        <rect class="cls-2" x="406.2" y="255.3" width="53.7" height="7.7" rx="2.2" ry="2.2"/>
        <path class="cls-9" d="M457.8,255.6h-24.3c-.1,0-.3-.1-.3-.3s.1-.3.3-.3h24.3c.1,0,.3.1.3.3s-.1.3-.3.3Z"/>
      </g>
      <path class="cls-6" d="M427.1,226.4s-6.4,2.5-6.5,4.9c-.1,2.1,7.2.3,7.2.3l-.6-5.2h0Z"/>
      <g>
        <g>
          <polygon class="cls-6" points="372.9 294.2 375.9 287 382.3 289.8 378.8 297.8 372.9 294.2"/>
          <polygon class="cls-8" points="374 291 380.6 293.8 379.2 297 373 293.9 374 291"/>
          <path class="cls-3" d="M360.1,294.2c4.1.7,10.7,1.9,10.7,1.9l1.5-2.7,7.4,3.3s-2.3,7.2-2.6,7.9-.8,2.3-2,1.9c-2.9-1.1-19.7-8.4-22.4-10.2-.7-.5,0-2.1,1.9-2.5,1.7-.4,4.3.3,5.4.5Z"/>
          <path class="cls-9" d="M370.9,300.4c-.5,0-.8-.3-1-.8-.3-1.2.5-3.5,1-4.1,0,0,.2-.1.3-.1.1,0,.2.1.2.2.2.6.6,3.5.4,4.1-.1.5-.5.7-.9.7h0ZM371,296.5c-.4.9-.8,2.3-.6,3,0,.4.2.4.5.4,0,0,.2,0,.4-.3.1-.3,0-2-.2-3Z"/>
          <path class="cls-9" d="M368.7,299.4c-.2,0-.4,0-.5-.1-.4-.3-.6-.7-.4-1.2.5-1.1,2.5-2.5,3.2-2.8.1,0,.2,0,.3,0s.1.2,0,.3c-.2.6-1.6,3.2-2.1,3.6-.2.2-.5.2-.6.2h0ZM370.6,296.1c-.8.5-1.9,1.4-2.2,2.1-.1.3,0,.5.1.6,0,0,.2.1.5,0,.3-.2,1.1-1.6,1.6-2.6h0Z"/>
          <path class="cls-9" d="M376.6,305.8s0,0-.1,0l-23.7-10.5c-.1,0-.2-.2-.1-.4,0-.1.2-.2.4-.1l23.7,10.5c.1,0,.2.2.1.4,0,.1-.1.2-.3.2h0Z"/>
          <path class="cls-9" d="M364.4,296.6c-.1,0-.2-.1-.3-.2-.2-1.3-.6-1.8-.6-1.8-.1-.1,0-.3,0-.4s.3,0,.4,0c0,0,.5.6.8,2.1,0,.1,0,.3-.2.3h0,0Z"/>
          <path class="cls-9" d="M366.2,297c-.1,0-.2-.1-.3-.2-.2-1.3-.6-1.8-.6-1.8-.1-.1,0-.3,0-.4s.3,0,.4,0c0,0,.5.6.8,2.1,0,.1,0,.3-.2.3h0,0Z"/>
          <path class="cls-9" d="M367.8,297.2c-.1,0-.2-.1-.3-.2-.2-1.3-.6-1.8-.6-1.8-.1-.1,0-.3,0-.4.1-.1.3,0,.4,0,0,0,.5.6.8,2.1,0,.1,0,.3-.2.3h0,0Z"/>
        </g>
        <g>
          <polygon class="cls-6" points="387.8 301.1 387.4 293.3 394.4 293.1 394.6 301.9 387.8 301.1"/>
          <polygon class="cls-8" points="387.4 297.7 394.5 297.4 394.7 301 387.8 300.7 387.4 297.7"/>
          <path class="cls-3" d="M376.2,306.4c4-1.1,10.5-2.9,10.5-2.9l.3-3.1,8.1-.2s1,7.5,1,8.2c0,.7.2,2.5-1,2.5-3.1.2-21.4.8-24.6.2-.8-.1-.8-1.9.6-3.1,1.3-1.1,4-1.5,5.1-1.8h0Z"/>
          <path class="cls-9" d="M388.2,307.6c-.3,0-.6-.1-.8-.4-.8-1-1-3.4-.8-4.2,0-.1,0-.2.2-.2.1,0,.2,0,.3,0,.4.5,2,2.9,2.1,3.6,0,.5-.1.8-.5,1-.2,0-.3.1-.5.1h0ZM387.1,303.9c0,1,.3,2.4.8,3,.2.3.4.2.6.1.1,0,.2-.1.2-.5,0-.3-.9-1.7-1.5-2.6Z"/>
          <path class="cls-9" d="M385.8,307.7h-.1c-.5,0-.8-.4-.9-1,0-1.2,1.2-3.3,1.8-3.9,0,0,.2-.1.3,0,.1,0,.2.1.2.2,0,.6,0,3.5-.4,4.1-.3.5-.6.6-.9.6h0ZM386.5,303.8c-.5.8-1.2,2.1-1.1,2.8,0,.4.2.4.4.5,0,0,.2,0,.4-.3.2-.3.3-1.9.3-3h0Z"/>
          <path class="cls-9" d="M370.1,310.6c-.1,0-.3-.1-.3-.3s.1-.3.3-.3l25.9-.5c.2,0,.3.1.3.3,0,.2-.1.3-.3.3l-25.9.5h0Z"/>
          <path class="cls-9" d="M381,306.9c0,0-.2,0-.2-.1-.8-1.1-1.3-1.4-1.3-1.4-.1,0-.2-.2-.1-.4,0-.1.2-.2.4-.1,0,0,.7.3,1.6,1.6,0,.1,0,.3,0,.4,0,0-.1,0-.2,0h0Z"/>
          <path class="cls-9" d="M382.8,306.5c0,0-.2,0-.2-.1-.8-1.1-1.3-1.4-1.3-1.4-.1,0-.2-.2-.1-.4,0-.1.2-.2.4-.1,0,0,.7.3,1.6,1.6,0,.1,0,.3,0,.4,0,0-.1,0-.2,0h0Z"/>
          <path class="cls-9" d="M384.3,306c0,0-.2,0-.2-.1-.8-1.1-1.3-1.4-1.3-1.4-.1,0-.2-.2-.1-.4,0-.1.2-.2.4-.1,0,0,.7.3,1.6,1.6,0,.1,0,.3,0,.4,0,0-.1,0-.2,0h0Z"/>
        </g>
        <path class="cls-4" d="M421,231.8c-4.3,2.4-32.9,5-35.6,9.4-3.8,6.1-5.6,16.7-7.6,26.2-3.1,15.7-4.3,21.8-4.3,21.8l8.6,3.8,15.6-37.7s35.1.6,39.7-.7,4.8-9.4,4.2-12.6c-.6-3.9-4.4-15.3-4.4-15.3l-15.8.4s1.6,3.5-.5,4.6h0Z"/>
        <path class="cls-9" d="M418.1,235.2c-4.3,2.4-24.8,2.5-28.3,6.4-6.7,7.5-4.9,55-4.9,55l11.7.2s4.8-21.3,6-28.9c.5-3.2,1.4-12.3,1.4-12.3,0,0,34.5.5,39.1-.8,4.6-1.3,5.8-9.5,5.8-12.9s.8-15.5.8-15.5l-28.3.4s-1.2,7.3-3.4,8.5h0Z"/>
        <g>
          <path class="cls-3" d="M451,239.6s5.9-47.7-1-57.4c-2.6-3.6-14.3-1-14.3-1-5.6,5.6-8.4,11.5-10.5,19.2-2,7.7-6.1,25.5-6.8,33.4,5.6,2.7,32.5,5.8,32.5,5.8Z"/>
          <path class="cls-9" d="M423.5,209.6h0c-.1,0-.2-.1-.2-.3,1.9-17.3,11.2-27,11.3-27.1,0-.1.2-.1.4,0,.1,0,.1.2,0,.4s-9.3,9.7-11.2,26.8c0,.1-.1.2-.2.2h0Z"/>
        </g>
        <g>
          <path class="cls-6" d="M405.9,217.1s-7.1,1.2-8.4,3.2c-1.3,2,7.5,2.5,7.5,2.5l.9-5.7h0Z"/>
          <path class="cls-6" d="M435,217.7l-29.1-.6-.9,5.7s28.8,6.4,36.8,3l-6.8-8.1h0Z"/>
          <path class="cls-3" d="M436.1,216.6s-1.5-23.8,4.5-26.4,9.4,1.6,10.3,4c1.5,4.1,2.2,20.6,1.1,25.9-1,5-4,9.9-18,9.5-13.9-.4-26.1-3.8-26.1-3.8l1.5-9.9,26.8.6h0Z"/>
          <path class="cls-9" d="M435.9,229.9c-.6,0-1.3,0-2,0-13.8-.4-26.1-3.8-26.2-3.8s-.2-.1-.2-.3l1.5-9.9c0-.1.1-.2.2-.2l26.5.6c0-1.4-.4-7.9.2-14.1,0-.1.1-.2.3-.2.1,0,.2.1.2.3-.6,6.9-.1,14.2-.1,14.3s0,.1,0,.2c0,0-.1,0-.2,0l-26.5-.6-1.4,9.5c1.7.4,13.1,3.3,25.9,3.7,13.9.4,16.7-4.5,17.7-9.3,0-.1.1-.2.3-.2.1,0,.2.2.2.3-1.7,8.2-8.9,9.7-16.3,9.7h0Z"/>
        </g>
        <g>
          <g>
            <path class="cls-6" d="M430.7,157.1s-2.8,8.2-2.3,13.3c.5,4.8,4.2,7.8,8.5,7.8l.4,3.3s5.7,1.5,11.1-.1v-7.5c0,0,0-15.9,0-15.9l-2-3.1-14.2-2.1-1.6,4.4h0Z"/>
            <path class="cls-9" d="M438.6,163.7c-.1.4-.6.7-1,.6s-.7-.6-.6-1,.6-.7,1-.6.7.6.6,1Z"/>
            <path class="cls-9" d="M433.8,162.6c-.1.4-.6.7-1,.6s-.7-.6-.6-1,.6-.7,1-.6.7.6.6,1Z"/>
            <path class="cls-9" d="M435.6,167.3h0c-.6,0-1.1-.2-1.6-.5-.1,0-.2-.3,0-.4s.3-.2.4,0c.3.2.8.4,1.2.4h0c.4,0,.8-.1,1.1-.3.1,0,.3,0,.4.1s0,.3-.1.4c-.4.2-.9.4-1.4.4h0Z"/>
            <path class="cls-9" d="M443.1,176.7c-.6.6-5.7,3.5-5.9,3.6,0,0-.3-2.6-.3-2.3,0,.1,1.1.2,2.5-.2,1.2-.4,2.5-.9,3.3-1.3l.4.2h0Z"/>
            <path class="cls-9" d="M437.3,178.4c-1.8,0-3.7-.4-5.5-1.6-.1,0-.2-.3,0-.4,0-.1.3-.2.4,0,3.4,2.3,7.8,1.7,10.6.1.1,0,.3,0,.4.1s0,.3-.1.4c-1.5.8-3.5,1.5-5.7,1.5h0Z"/>
            <path class="cls-9" d="M437.4,160.3c.6-.4,2,.2,2.4.5,0,0,.2.5-.2.8-.5.4-1.8-.1-2.3-.3,0,0,0,0-.1,0,0,0,0,0,0-.1,0-.2,0-.4,0-.6,0-.1.1-.2.2-.3h0Z"/>
            <path class="cls-9" d="M432.1,159.2c.6-.4,2,.2,2.4.5,0,0,.2.5-.2.8-.5.4-1.8-.1-2.3-.2,0,0,0,0-.1,0,0,0,0,0,0-.1,0-.2,0-.4,0-.6,0-.1.1-.2.2-.3h0Z"/>
            <g>
              <path class="cls-6" d="M447.1,165.9c1.4-.5,4.1-1.4,5.3-.4,1.1.9,1,2.6,0,3.6-1.6,1.7-4.7,2.3-5.6,2.5"/>
              <path class="cls-9" d="M451.4,167.3s0,0-.1,0c-1-.4-1.6-.1-1.7-.1-.1,0-.3,0-.4-.1,0-.1,0-.3.1-.4,0,0,1-.4,2.1.1.1,0,.2.2.1.4,0,.1-.2.2-.3.2Z"/>
              <path class="cls-9" d="M450,168.6c0,0-.1,0-.2,0-.1-.1-.1-.3,0-.4,0,0,.3-.4.6-1.2,0-.1.2-.2.4-.2.1,0,.2.2.2.4-.4.9-.7,1.3-.7,1.3,0,0-.1.1-.2.1h0Z"/>
            </g>
            <path class="cls-9" d="M439.2,149.2c1.1,0,7.6.3,10.2,1.1,1.4.4,2.7,1.1,3.6,2.3.6.9.9,1.9,1.1,3,.4,2.8-1,10.4-1,10.4,0,0-1-.8-2.9-.7-.5,0-1.4.2-1.8.3-.2,0-.2,3.9-.4,3.9l-2.3-.3c-.2,0,.1-10.2,0-10.3-.4-.6-2.2-2.2-5.1-1.9-3.5.4-7.7,1.7-10.5-.1-1.8-1.1-2.7-3.7-2-6,0-.2,1.2-2.9,4.7-2.9,1.6,0,4.2,1.2,6.6,1.3h0Z"/>
          </g>
          <path class="cls-9" d="M443.4,182.5c-3.2,0-6-.6-6.2-.7-.2,0-.2-.2-.2-.4,0-.2.2-.2.4-.2,0,0,6.8,1.6,11,0,.1,0,.3,0,.4.2s0,.3-.2.4c-1.6.6-3.4.8-5.2.8h0Z"/>
        </g>
      </g>
    </g>
    <g>
      <rect class="cls-9" x="317.7" y="223.4" width="117.4" height="6.4"/>
      <g>
        <rect class="cls-9" x="324" y="229.8" width="104.7" height="2.7"/>
        <rect class="cls-9" x="424.5" y="230.3" width="4.3" height="87.4"/>
        <rect class="cls-9" x="324.6" y="230.3" width="4.3" height="87.4"/>
      </g>
    </g>
    <g>
      <path class="cls-7" d="M342.1,195.4h35.4c1.6,0,3,1.1,3,2.5l8.2,22.3,17.5,3c.5,0-9.4.1-16.3.2h0c0,0-41.4,0-41.4,0l-9.5-25.6c0-1.4,1.3-2.5,3-2.5h0Z"/>
      <path class="cls-2" d="M342.1,195.4h35.4c1.6,0,3,1.1,3,2.5l8.2,22.3,17.5,3c.5,0-9.4.1-16.3.2h0c0,0-41.4,0-41.4,0l-9.5-25.6c0-1.4,1.3-2.5,3-2.5h0Z"/>
      <path class="cls-8" d="M358.5,208.8c0,2.4,2,4.4,4.4,4.4s4.4-2,4.4-4.4-2-4.4-4.4-4.4-4.4,2-4.4,4.4Z"/>
    </g>
  </g>
</svg>