<svg width="371" height="304" xmlns="http://www.w3.org/2000/svg" xmlns:svg="http://www.w3.org/2000/svg" enable-background="new 0 0 500 500" version="1.1" xml:space="preserve">
 <g class="layer">
  <title>Layer 1</title>
  <radialGradient cx="250" cy="250" gradientUnits="userSpaceOnUse" id="SVGID_1_" r="250">
   <stop offset="0" stop-color="#3ECDB8"/>
   <stop offset="1" stop-color="#3EAEB8"/>
  </radialGradient>
  <path d="m313.69,298.33c0,-3.04 -57.53,-5.5 -128.51,-5.5s-128.51,2.47 -128.51,5.5c0,3.04 57.53,5.5 128.51,5.5s128.51,-2.46 128.51,-5.5z" fill="#1e3a8a" id="svg_3"/>
  <g id="svg_4">
   <polygon fill="#E2E1E1" id="svg_5" points="222.99799346923828,294.54100799560547 148.7459945678711,294.54100799560547 158.41399383544922,267.4240036010742 213.32999420166016,267.4240036010742 "/>
   <polygon fill="#AEAEAE" id="svg_6" points="213.30701446533203,267.4240036010742 158.39000701904297,267.4240036010742 154.63500213623047,277.95699310302734 217.0619888305664,277.95699310302734 "/>
   <path d="m141.2,298.25l89.34,0l0,-2.37c0,-2.47 -2,-4.48 -4.48,-4.48l-80.38,0c-2.48,0 -4.48,2.01 -4.48,4.48l0,2.37z" fill="#AEAEAE" id="svg_7"/>
   <g id="svg_8">
    <path d="m310.23,98.02c0,-4.01 -3.25,-7.26 -7.27,-7.26l-235.2,0c-4.02,0 -7.27,3.25 -7.27,7.26l0,150.99l249.74,0l0,-150.99z" fill="#003243" id="svg_9"/>
    <path d="m60.49,249.01l0,14.77c0,4.02 3.25,7.27 7.27,7.27l235.2,0c4.02,0 7.27,-3.26 7.27,-7.27l0,-14.77l-249.74,0z" fill="#E2E1E1" id="svg_10"/>
   </g>
   <rect fill="#96D6F7" height="135.9" id="svg_11" width="226.48" x="71.86" y="101.19"/>
   <rect fill="#D6EEFD" height="132.28" id="svg_12" width="220.45" x="74.87" y="103"/>
   <path d="m310.23,98.02c0,-4.01 -3.25,-7.26 -7.27,-7.26l-202.28,0l209.55,148.57l0,-141.31z" fill="#FFFFFF" id="svg_13" opacity="0.37"/>
  </g>
  <g id="svg_14">
   <polygon fill="#FFFFFF" id="svg_15" points="320.3200149536133,235.35799407958984 334.6139907836914,276.0960006713867 342.47599029541016,263.2310104370117 352.48099517822266,272.16500091552734 359.6950149536133,263.7419967651367 349.4669876098633,255.03301239013672 362.13001251220703,248.22301483154297 "/>
   <polygon fill="#D8D8D8" id="svg_16" points="320.3200149536133,235.35799407958984 334.6139907836914,276.0960006713867 342.47599029541016,263.2310104370117 352.48099517822266,272.16500091552734 356.13001251220703,267.90401458740234 320.3589859008789,235.3700180053711 "/>
  </g>
  <circle cx="186.57" cy="260.31" fill="#C0C0C0" id="svg_39" r="3.48"/>
  <g id="svg_40" opacity="0.47">
   <path d="m362.22,93.63c-0.82,0 -1.6,0.11 -2.34,0.32c-1.93,-4.44 -6.35,-7.55 -11.49,-7.55c-6.92,0 -12.52,5.61 -12.52,12.52c0,0.33 0.02,0.65 0.05,0.97c-2.81,0.41 -4.97,2.82 -4.97,5.74c0,3.21 2.6,5.82 5.81,5.82c1.85,0 23.02,0 25.46,0c4.92,0 8.9,-3.99 8.9,-8.91c0,-4.92 -3.99,-8.91 -8.9,-8.91z" fill="none" id="svg_41" stroke="#FFFFFF" stroke-miterlimit="10"/>
   <path d="m338.71,64.72l0,-8l-5.2,0c-0.29,-1.02 -0.69,-2 -1.2,-2.91l3.68,-3.68l-5.67,-5.66l-3.67,3.67c-0.91,-0.5 -1.89,-0.9 -2.91,-1.19l0,-5.2l-8.01,0l0,5.2c-1.02,0.29 -1.99,0.69 -2.91,1.2l-3.67,-3.68l-5.66,5.66l3.67,3.68c-0.5,0.91 -0.9,1.89 -1.2,2.91l-5.2,0l0,8.01l5.2,0c0.3,1.02 0.7,1.99 1.2,2.91l-3.67,3.67l5.66,5.66l3.67,-3.67c0.92,0.5 1.89,0.9 2.91,1.2l0,5.2l8.01,0l0,-5.2c1.02,-0.3 2,-0.7 2.91,-1.2l3.67,3.67l5.66,-5.66l-3.67,-3.67c0.5,-0.92 0.9,-1.89 1.2,-2.91l5.2,0l0,-0.01zm-18.97,1.13c-2.83,0 -5.13,-2.3 -5.13,-5.13s2.3,-5.13 5.13,-5.13s5.13,2.3 5.13,5.13s-2.3,5.13 -5.13,5.13z" fill="none" id="svg_42" stroke="#FFFFFF" stroke-miterlimit="10"/>
   <path d="m307.79,34.86l0,-4.41l-2.87,0c-0.16,-0.57 -0.38,-1.11 -0.66,-1.61l2.03,-2.02l-3.12,-3.13l-2.03,2.03c-0.5,-0.28 -1.04,-0.5 -1.6,-0.66l0,-2.87l-4.42,0l0,2.87c-0.56,0.16 -1.1,0.38 -1.6,0.66l-2.03,-2.03l-3.12,3.13l2.03,2.02c-0.28,0.5 -0.5,1.04 -0.66,1.61l-2.87,0l0,4.41l2.87,0c0.16,0.56 0.38,1.1 0.66,1.6l-2.03,2.03l3.12,3.12l2.03,-2.03c0.5,0.28 1.04,0.5 1.6,0.67l0,2.86l4.42,0l0,-2.86c0.56,-0.17 1.1,-0.39 1.6,-0.67l2.03,2.03l3.12,-3.12l-2.03,-2.03c0.28,-0.5 0.5,-1.04 0.66,-1.6l2.87,0zm-10.46,0.62c-1.56,0 -2.83,-1.27 -2.83,-2.83s1.27,-2.83 2.83,-2.83s2.83,1.27 2.83,2.83s-1.27,2.83 -2.83,2.83z" fill="none" id="svg_43" stroke="#FFFFFF" stroke-miterlimit="10" stroke-width="0.75"/>
   <path d="m338.64,28.05l0,-4.41l-2.87,0c-0.16,-0.56 -0.38,-1.1 -0.66,-1.61l2.02,-2.02l-3.12,-3.12l-2.02,2.02c-0.5,-0.27 -1.04,-0.49 -1.61,-0.66l0,-2.86l-4.41,0l0,2.86c-0.56,0.17 -1.1,0.39 -1.6,0.66l-2.03,-2.02l-3.12,3.12l2.02,2.02c-0.27,0.51 -0.49,1.05 -0.66,1.61l-2.86,0l0,4.41l2.86,0c0.17,0.57 0.39,1.1 0.66,1.61l-2.02,2.02l3.12,3.12l2.03,-2.02c0.5,0.28 1.04,0.5 1.6,0.66l0,2.87l4.41,0l0,-2.87c0.57,-0.16 1.11,-0.38 1.61,-0.66l2.02,2.03l3.12,-3.13l-2.02,-2.02c0.28,-0.51 0.5,-1.04 0.66,-1.61l2.87,0zm-10.46,0.62c-1.56,0 -2.83,-1.26 -2.83,-2.82s1.27,-2.83 2.83,-2.83s2.82,1.27 2.82,2.83s-1.26,2.82 -2.82,2.82z" fill="none" id="svg_44" stroke="#FFFFFF" stroke-miterlimit="10" stroke-width="0.75"/>
   <g id="svg_45">
    <rect fill="none" height="8.37" id="svg_46" stroke="#FFFFFF" stroke-miterlimit="10" transform="matrix(0.7787 -0.6273 0.6273 0.7787 -92.3206 109.492)" width="37.84" x="100.67" y="65.33"/>
    <rect fill="none" height="8.37" id="svg_47" stroke="#FFFFFF" stroke-miterlimit="10" transform="matrix(-0.7787 0.6274 -0.6274 -0.7787 290.166 294.577)" width="3.08" x="81.06" y="310.38"/>
    <polyline fill="none" id="svg_48" points="56.532997131347656,73.47899627685547 65.43000030517578,71.67501068115234 61.782997131347656,79.99700164794922 " stroke="#FFFFFF" stroke-miterlimit="10"/>
    <path d="m27.17,107.88c-1.42,1.14 -3.49,0.92 -4.63,-0.5l-1.12,-1.38c-1.14,-1.42 -0.91,-3.5 0.5,-4.64l2.73,-2.19l5.25,6.51l-2.73,2.2z" fill="none" id="svg_49" stroke="#FFFFFF" stroke-miterlimit="10"/>
   </g>
   <path d="m24.89,31.46l51.19,28.14l-11.76,-39.79l-39.43,11.65zm38.49,12.28l-18.4,-10.06l14.16,-4.26l4.24,14.32z" fill="none" id="svg_50" stroke="#FFFFFF" stroke-miterlimit="10"/>
   <circle cx="20.86" cy="62.41" fill="none" id="svg_51" r="17.11" stroke="#FFFFFF" stroke-miterlimit="10"/>
   <line fill="none" id="svg_52" stroke="#FFFFFF" stroke-miterlimit="10" x1="20.83" x2="20.83" y1="79.52" y2="45.3"/>
   <path d="m20.83,79.52c0,0 -8.21,-7.38 -8.21,-17.11c0,-9.73 8.21,-17.11 8.21,-17.11" fill="none" id="svg_53" stroke="#FFFFFF" stroke-miterlimit="10"/>
   <path d="m20.83,79.52c0,0 -13.95,-2.9 -13.95,-17.11c0,-14.34 13.95,-17.11 13.95,-17.11" fill="none" id="svg_54" stroke="#FFFFFF" stroke-miterlimit="10"/>
   <path d="m20.89,79.52c0,0 8.21,-7.38 8.21,-17.11c0,-9.73 -8.21,-17.11 -8.21,-17.11" fill="none" id="svg_55" stroke="#FFFFFF" stroke-miterlimit="10"/>
   <path d="m20.89,79.52c0,0 13.94,-2.9 13.94,-17.11c0,-14.34 -13.94,-17.11 -13.94,-17.11" fill="none" id="svg_56" stroke="#FFFFFF" stroke-miterlimit="10"/>
   <line fill="none" id="svg_57" stroke="#FFFFFF" stroke-miterlimit="10" x1="37.97" x2="3.74" y1="62.46" y2="62.46"/>
   <polygon fill="#FFFFFF" id="svg_58" points="81.68900299072266,25.3070068359375 82.15599822998047,26.743003845214844 83.6659927368164,26.743003845214844 82.4439926147461,27.6300048828125 82.91100311279297,29.066001892089844 81.68900299072266,28.179000854492188 80.4679946899414,29.066001892089844 80.93399810791016,27.6300048828125 79.71300506591797,26.743003845214844 81.2229995727539,26.743003845214844 "/>
   <polygon fill="#FFFFFF" id="svg_59" points="274.5250015258789,17.31800079345703 274.8639907836914,18.363006591796875 275.9629898071289,18.363006591796875 275.07401275634766,19.009002685546875 275.4140090942383,20.054000854492188 274.5250015258789,19.408004760742188 273.63599395751953,20.054000854492188 273.97599029541016,19.009002685546875 273.0870132446289,18.363006591796875 274.1850051879883,18.363006591796875 "/>
   <polygon fill="#FFFFFF" id="svg_60" points="282.3670120239258,8.532005310058594 283.4780044555664,11.954002380371094 287.0759963989258,11.954002380371094 284.1659927368164,14.068000793457031 285.27698516845703,17.490005493164062 282.3670120239258,15.375 279.4560012817383,17.490005493164062 280.56800079345703,14.068000793457031 277.65699005126953,11.954002380371094 281.25501251220703,11.954002380371094 "/>
   <polygon fill="#FFFFFF" id="svg_61" points="287.7129898071289,55.32801055908203 288.00199127197266,56.21599578857422 288.9360122680664,56.21599578857422 288.1800003051758,56.76500701904297 288.46900177001953,57.65300750732422 287.7129898071289,57.10399627685547 286.9579849243164,57.65300750732422 287.24600982666016,56.76500701904297 286.49100494384766,56.21599578857422 287.4249954223633,56.21599578857422 "/>
   <polygon fill="#FFFFFF" id="svg_62" points="81.68900299072266,75.27100372314453 82.14200592041016,76.66400909423828 83.60700225830078,76.66400909423828 82.42200469970703,77.5250015258789 82.87500762939453,78.91800689697266 81.68900299072266,78.05699920654297 80.5040054321289,78.91800689697266 80.95699310302734,77.5250015258789 79.7719955444336,76.66400909423828 81.23700714111328,76.66400909423828 "/>
   <polygon fill="#FFFFFF" id="svg_63" points="35.70800018310547,123.55200958251953 37.084999084472656,127.78900909423828 41.54100036621094,127.78900909423828 37.935997009277344,130.40799713134766 39.31300354003906,134.6449966430664 35.70800018310547,132.02600860595703 32.10399627685547,134.6449966430664 33.48100280761719,130.40799713134766 29.875999450683594,127.78900909423828 34.33100128173828,127.78900909423828 "/>
   <polygon fill="#FFFFFF" id="svg_64" points="86.68000030517578,17.379005432128906 87.24500274658203,19.121002197265625 89.0770034790039,19.121002197265625 87.5949935913086,20.197006225585938 88.16100311279297,21.939002990722656 86.68000030517578,20.86200714111328 85.19800567626953,21.939002990722656 85.76399993896484,20.197006225585938 84.28299713134766,19.121002197265625 86.11400604248047,19.121002197265625 "/>
   <polygon fill="#FFFFFF" id="svg_65" points="3.2060012817382812,96.9000015258789 3.9629974365234375,99.22899627685547 6.4120025634765625,99.22899627685547 4.430999755859375,100.66899871826172 5.1869964599609375,102.99800872802734 3.2060012817382812,101.5580062866211 1.2239990234375,102.99800872802734 1.9810028076171875,100.66899871826172 0,99.22899627685547 2.4489974975585938,99.22899627685547 "/>
   <polygon fill="#FFFFFF" id="svg_66" points="354.89600372314453,66.77100372314453 356.15198516845703,70.63800811767578 360.21900177001953,70.63800811767578 356.92899322509766,73.02800750732422 358.1850051879883,76.8949966430664 354.89600372314453,74.50499725341797 351.60599517822266,76.8949966430664 352.8630142211914,73.02800750732422 349.57300567626953,70.63800811767578 353.6390151977539,70.63800811767578 "/>
   <polygon fill="#FFFFFF" id="svg_67" points="361.73999786376953,59.413002014160156 362.1659927368164,60.72400665283203 363.5449905395508,60.72400665283203 362.4300003051758,61.534996032714844 362.85599517822266,62.847007751464844 361.73999786376953,62.03600311279297 360.6240005493164,62.847007751464844 361.0510025024414,61.534996032714844 359.9350051879883,60.72400665283203 361.31400299072266,60.72400665283203 "/>
   <polygon fill="#FFFFFF" id="svg_68" points="332.36499786376953,131.90799713134766 333.12198638916016,134.23700714111328 335.5709915161133,134.23700714111328 333.58899688720703,135.67700958251953 334.34598541259766,138.0060043334961 332.36499786376953,136.56700897216797 330.3830032348633,138.0060043334961 331.1399917602539,135.67700958251953 329.1590042114258,134.23700714111328 331.6080093383789,134.23700714111328 "/>
   <polygon fill="#FFFFFF" id="svg_69" points="71.12200164794922,0 72.71199798583984,4.8950042724609375 77.85799407958984,4.8950042724609375 73.69499969482422,7.91900634765625 75.28499603271484,12.814002990722656 71.12200164794922,9.78900146484375 66.9590072631836,12.814002990722656 68.54900360107422,7.91900634765625 64.38599395751953,4.8950042724609375 69.5320053100586,4.8950042724609375 "/>
   <polygon fill="#FFFFFF" id="svg_70" points="181.42899322509766,7.637001037597656 182.8060073852539,11.874000549316406 187.26099395751953,11.874000549316406 183.6570053100586,14.493003845214844 185.03400421142578,18.731002807617188 181.42899322509766,16.11200714111328 177.8239974975586,18.731002807617188 179.20099639892578,14.493003845214844 175.59600067138672,11.874000549316406 180.05199432373047,11.874000549316406 "/>
   <polygon fill="#FFFFFF" id="svg_71" points="198.53900909423828,18.3280029296875 199.11600494384766,20.10400390625 200.9830093383789,20.10400390625 199.47199249267578,21.202003479003906 200.04999542236328,22.978004455566406 198.53900909423828,21.8800048828125 197.02799224853516,22.978004455566406 197.60498809814453,21.202003479003906 196.09400177001953,20.10400390625 197.9620132446289,20.10400390625 "/>
   <polygon fill="#FFFFFF" id="svg_72" points="125.8219985961914,10.054000854492188 126.97600555419922,13.606002807617188 130.71100616455078,13.606002807617188 127.68900299072266,15.802001953125 128.8429946899414,19.35400390625 125.8219985961914,17.15900421142578 122.79999542236328,19.35400390625 123.9540023803711,15.802001953125 120.9330062866211,13.606002807617188 124.66800689697266,13.606002807617188 "/>
  </g>
 </g>
</svg>